# xmcd CD database file
#
# Track frame offsets:
#	182
#	11580
#	22775
#	38320
#	57392
#	78980
#	109500
#	130390
#	145967
#	169795
#	187870
#	212695
#	229362
#	253205
#	274127
#
# Disc length: 3835 seconds
#
# Revision: 3
# Processed by: cddbd v1.5.1PL2 Copyright (c) Steve Scherf et al.
# Submitted via: CDex 1.51
#
DISCID=c50ef90f
DTITLE=Blues Chicago Style - Take A Walk With Me, The 50's Sound Revival
DYEAR=1900
DGENRE=Blues
TTITLE0=JOE CARTER - Mama Talk To Your Daughter
TTITLE1=JOE CARTER - You're The One
TTITLE2=JOE CARTER - Rock Me
TTITLE3=JOHNNY LITTLEJOHN - If You Don't Want Me
TTITLE4=JOHNNY LITTLEJOHN - Keep On Running
TTITLE5=LEFTY DIZZ - I Feel Like Jumping
TTITLE6=JIMMY ROGERS - Take A Walk With Me
TTITLE7=FRANK JB - Wee Little Room
TTITLE8=JOHNNY LITTLEJOHN - Mojo
TTITLE9=BYTHER SMITH - Looking For A Woman
TTITLE10=HUBERT SUMLIN - You Got To Help Me
TTITLE11=HUBERT SUMLIN - It Could Be You
TTITLE12=BREWER PHILLIPS - Whisky Headed Woman
TTITLE13=BREWER PHILLIPS - Poison Ivy
TTITLE14=BIG RED SMITH - Bottleneck Blues
EXTD=
EXTT0=
EXTT1=
EXTT2=
EXTT3=
EXTT4=
EXTT5=
EXTT6=
EXTT7=
EXTT8=
EXTT9=
EXTT10=
EXTT11=
EXTT12=
EXTT13=
EXTT14=
PLAYORDER=
